#!OML:ASF I:\Actors\actors\Patient Classification 1\Patient 1\Session 1\Subject1.ASF
:FULLY-SPECIFIED
:DEGREES
803
root 0.336499 16.7019 8.06438 72.9278 36.9597 -8.88045
lowerback 35.4503 3.10615 5.3812
upperback 10.2103 5.52371 -0.15955
thorax -6.02996 2.59197 -4.93174
lowerneck -7.87701 -5.41781 -0.34495
upperneck -22.2959 -5.61141 12.2655
head -5.02158 -3.54086 4.04762
rclavicle 3.73715e-014 4.41302e-014
rhumerus 69.6503 0.255502 -79.7593
rradius 29.4553
rwrist 35.0218
rhand -14.3382 -63.7624
rfingers 7.12502
rthumb 11.803 -626.59
lclavicle 3.73715e-014 4.41302e-014
lhumerus 30.0247 -12.112 76.292
lradius 91.7153
lwrist 16.8797
lhand -47.3288 -52.972
lfingers 7.12502
lthumb -20.0234 -23.9837
rfemur -72.2799 -5.97889 64.8309
rtibia -2.56154
rfoot -4.49923 6.24977
rtoes 12.0156
lfemur -93.3199 10.0405 -4.89381
ltibia 9.22437
lfoot 11.9229 -10.6061
ltoes 46.7023
804
root 0.338188 16.6933 8.07368 73.1819 36.8497 -8.89091
lowerback 35.394 3.35042 5.2663
upperback 10.3181 5.78274 0.026433
thorax -5.89334 2.70967 -4.755
lowerneck -7.71115 -5.51045 -0.300782
upperneck -22.5452 -5.76026 12.0921
head -5.12748 -3.62682 4.00186
rclavicle 7.95139e-015 -9.42239e-014
rhumerus 71.2597 -0.136437 -81.6379
rradius 27.7963
rwrist 33.0858
rhand -13.7531 -63.8385
rfingers 7.12502
rthumb 12.3672 -626.547
lclavicle 7.95139e-015 -9.42239e-014
lhumerus 30.3299 -12.4626 76.416
lradius 91.7781
lwrist 16.8369
lhand -47.2115 -52.9669
lfingers 7.12502
lthumb -19.9106 -23.9669
rfemur -72.4324 -5.73658 64.6751
rtibia -2.60608
rfoot -4.54501 6.13623
rtoes 11.7509
lfemur -93.4727 10.0734 -5.21093
ltibia 9.09258
lfoot 11.944 -10.8816
ltoes 46.2274
805
root 0.341001 16.6852 8.08324 73.4651 36.7624 -8.90262
lowerback 35.2866 3.58998 5.18344
upperback 10.411 6.04162 0.183962
thorax -5.7513 2.82827 -4.62268
lowerneck -7.43303 -5.55452 -0.0387022
upperneck -22.8768 -5.84272 11.87
head -5.29416 -3.69978 3.9119
rclavicle 3.49861e-014 9.54166e-015
rhumerus 72.5043 -0.52871 -83.0237
rradius 26.8483
rwrist 30.6621
rhand -11.4562 -62.8876
rfingers 7.12502
rthumb 14.581 -627.645
lclavicle 3.49861e-014 9.54166e-015
lhumerus 30.6524 -12.9054 76.4452
lradius 91.8443
lwrist 16.6767
lhand -47.3111 -52.5845
lfingers 7.12502
lthumb -20.0064 -23.5944
rfemur -72.59 -5.47259 64.5456
rtibia -2.66115
rfoot -4.53771 6.02026
rtoes 11.5711
lfemur -93.7052 10.1106 -5.51357
ltibia 9.03016
lfoot 12.0266 -11.0721
ltoes 45.9826
806
root 0.345363 16.6778 8.09006 73.8418 36.7019 -8.8101
lowerback 35.1908 3.74283 5.18565
upperback 10.4513 6.22503 0.307544
thorax -5.6674 2.91123 -4.54792
lowerneck -7.15969 -5.57131 0.456845
upperneck -23.0877 -5.93218 11.4689
head -5.44038 -3.78026 3.7224
rclavicle 3.57812e-014 -5.88403e-014
rhumerus 73.3057 -0.694027 -83.1427
rradius 26.6046
rwrist 27.1636
rhand -9.45316 -62.9101
rfingers 7.12502
rthumb 16.5102 -627.772
lclavicle 3.57812e-014 -5.88403e-014
lhumerus 30.9421 -13.4344 76.3582
lradius 91.9228
lwrist 16.2041
lhand -48.1307 -51.9251
lfingers 7.12502
lthumb -20.794 -23.0193
rfemur -72.8395 -5.25277 64.4239
rtibia -2.69685
rfoot -4.46888 5.91916
rtoes 11.5019
lfemur -94.0677 10.0589 -5.82809
ltibia 9.07752
lfoot 12.1491 -11.2239
ltoes 45.9691
807
root 0.349351 16.6718 8.09703 74.2143 36.6011 -8.64931
lowerback 35.1503 3.86238 5.16941
upperback 10.5072 6.36529 0.427565
thorax -5.59269 2.97438 -4.4548
lowerneck -7.0272 -5.63891 0.72204
upperneck -23.1935 -6.07015 11.2552
head -5.50975 -3.87068 3.62232
rclavicle 1.46306e-013 1.30403e-013
rhumerus 74.0197 -0.663378 -82.6796
rradius 26.5605
rwrist 23.215
rhand -8.78899 -63.8967
rfingers 7.12502
rthumb 17.1496 -626.84
lclavicle 1.46306e-013 1.30403e-013
lhumerus 31.2733 -13.9552 76.217
lradius 92.0549
lwrist 15.6197
lhand -49.401 -50.5814
lfingers 7.12502
lthumb -22.0141 -21.8142
rfemur -73.1096 -5.10087 64.245
rtibia -2.68091
rfoot -4.41269 5.82771
rtoes 11.2243
lfemur -94.3739 9.93106 -6.19141
ltibia 9.1033
lfoot 12.2502 -11.4023
ltoes 45.896
808
root 0.353415 16.6671 8.1057 74.5142 36.4898 -8.48676
lowerback 35.1558 3.97589 5.15632
upperback 10.5985 6.50064 0.554424
thorax -5.49716 3.03638 -4.35466
lowerneck -6.89024 -5.73335 0.638264
upperneck -23.3371 -6.18451 11.3315
head -5.56476 -3.93927 3.67286
rclavicle -1.59028e-015 -2.06736e-014
rhumerus 74.6966 -0.644067 -82.1838
rradius 26.6631
rwrist 19.6111
rhand -7.7028 -64.57
rfingers 7.12502
rthumb 18.1948 -626.261
lclavicle -1.59028e-015 -2.06736e-014
lhumerus 31.6453 -14.3487 76.1988
lradius 92.1374
lwrist 15.5448
lhand -49.6338 -49.7215
lfingers 7.12502
lthumb -22.2376 -20.9808
rfemur -73.322 -5.01527 64.0451
rtibia -2.67796
rfoot -4.34513 5.7634
rtoes 11.5137
lfemur -94.5208 9.76542 -6.55022
ltibia 9.00749
lfoot 12.3263 -11.5978
ltoes 45.6447
809
root 0.358454 16.6617 8.11277 74.8297 36.3507 -8.32164
lowerback 35.0859 4.15692 5.07952
upperback 10.7162 6.69558 0.728067
thorax -5.35371 3.12605 -4.18693
lowerneck -6.84488 -5.82375 0.629424
upperneck -23.3937 -6.33289 11.2479
head -5.58574 -4.0153 3.65427
rclavicle 2.22639e-014 -2.94201e-014
rhumerus 75.3665 -0.795522 -81.7695
rradius 26.7992
rwrist 16.4392
rhand -6.01456 -65.1033
rfingers 7.12502
rthumb 19.8184 -625.887
lclavicle 2.22639e-014 -2.94201e-014
lhumerus 31.9953 -14.7359 76.3632
lradius 92.2366
lwrist 15.8394
lhand -49.179 -49.7467
lfingers 7.12502
lthumb -21.8009 -20.9546
rfemur -73.5667 -4.92291 63.8166
rtibia -2.66153
rfoot -4.27699 5.72417
rtoes 12.4358
lfemur -94.6023 9.5781 -6.93466
ltibia 8.80007
lfoot 12.3014 -11.8937
ltoes 44.9594
810
root 0.363042 16.6557 8.11878 75.1874 36.1693 -8.13617
lowerback 34.9549 4.32496 4.93959
upperback 10.8139 6.85176 0.873015
thorax -5.21925 3.19787 -4.00196
lowerneck -6.83603 -5.87579 0.751496
upperneck -23.3748 -6.4547 11.0464
head -5.58968 -4.07712 3.57216
rclavicle 4.29375e-014 -9.70069e-014
rhumerus 75.9067 -0.878889 -81.3122
rradius 27.1257
rwrist 12.9215
rhand -4.37449 -65.6596
rfingers 7.12502
rthumb 21.3943 -625.502
lclavicle 4.29375e-014 -9.70069e-014
lhumerus 32.3057 -15.0505 76.4409
lradius 92.3197
lwrist 16.1183
lhand -48.9132 -49.633
lfingers 7.12502
lthumb -21.5456 -20.8114
rfemur -73.8635 -4.81641 63.5449
rtibia -2.58325
rfoot -4.27794 5.63091
rtoes 12.2108
lfemur -94.7294 9.38512 -7.36816
ltibia 8.62343
lfoot 12.2445 -12.2232
ltoes 44.2087
811
root 0.367784 16.6507 8.12598 75.463 36.0166 -8.00251
lowerback 35.2094 4.47968 4.59223
upperback 10.6412 6.96563 1.12106
thorax -5.55729 3.22002 -3.62996
lowerneck -6.67443 -5.86819 0.627797
upperneck -23.1973 -6.47834 10.9079
head -5.55811 -4.06886 3.5469
rclavicle 1.59028e-015 4.77083e-014
rhumerus 75.9469 -0.511396 -80.3788
rradius 27.807
rwrist 8.73115
rhand -3.30697 -66.3453
rfingers 7.12502
rthumb 22.4193 -624.936
lclavicle 1.59028e-015 4.77083e-014
lhumerus 32.1644 -15.1223 76.5849
lradius 92.3526
lwrist 16.3897
lhand -48.5021 -49.0778
lfingers 7.12502
lthumb -21.1508 -20.2115
rfemur -74.0626 -4.74428 63.2989
rtibia -2.59263
rfoot -4.26858 5.4721
rtoes 11.5712
lfemur -94.871 9.2428 -7.75613
ltibia 8.55357
lfoot 12.3035 -12.4375
ltoes 43.9895
812
root 0.372354 16.646 8.13422 75.6516 35.873 -7.97198
lowerback 36.1817 4.86618 3.58625
upperback 9.90325 7.22832 1.73242
thorax -6.75868 3.25632 -2.64275
lowerneck -6.45202 -5.80248 0.552009
upperneck -22.6276 -6.51537 10.3662
head -5.43103 -4.03267 3.37281
rclavicle -1.24042e-013 -2.78299e-014
rhumerus 75.3158 0.375593 -78.5914
rradius 28.737
rwrist 4.33743
rhand -2.62295 -67.4749
rfingers 7.12502
rthumb 23.0758 -623.887
lclavicle -1.24042e-013 -2.78299e-014
lhumerus 31.0874 -15.0796 77.2091
lradius 92.3447
lwrist 16.1042
lhand -48.4974 -49.465
lfingers 7.12502
lthumb -21.1462 -20.5983
rfemur -74.1478 -4.61896 63.0825
rtibia -2.65033
rfoot -4.20908 5.34987
rtoes 11.5077
lfemur -94.9828 9.19925 -8.106
ltibia 8.50266
lfoot 12.383 -12.6056
ltoes 43.9015
813
root 0.376368 16.6408 8.14056 75.8411 35.7168 -7.9793
lowerback 35.1555 4.82331 4.29523
upperback 10.6717 7.29111 1.36388
thorax -5.54544 3.35595 -3.3293
lowerneck -6.35859 -5.98362 0.903533
upperneck -23.2713 -6.69272 10.6586
head -5.64735 -4.20128 3.44203
rclavicle 7.79236e-014 9.93923e-014
rhumerus 76.0774 -0.228859 -77.9322
rradius 29.8123
rwrist 0.794663
rhand -1.88749 -68.51
rfingers 7.12502
rthumb 23.7813 -622.942
lclavicle 7.79236e-014 9.93923e-014
lhumerus 32.4224 -15.7456 76.2486
lradius 92.0164
lwrist 15.8132
lhand -48.9275 -51.0705
lfingers 7.12502
lthumb -21.5594 -22.2505
rfemur -74.2416 -4.42435 62.8722
rtibia -2.64029
rfoot -4.14413 5.27525
rtoes 11.4683
lfemur -95.0888 9.19773 -8.45966
ltibia 8.41355
lfoot 12.3938 -12.8146
ltoes 43.463
814
root 0.382075 16.6364 8.14363 76.036 35.5393 -7.94997
lowerback 34.8374 4.69594 4.61171
upperback 10.9258 7.188 1.11486
thorax -5.09449 3.34135 -3.67825
lowerneck -6.50697 -6.00287 0.985226
upperneck -23.2706 -6.7015 10.8092
head -5.61964 -4.22202 3.47154
rclavicle 3.18055e-014 8.90555e-014
rhumerus 76.0371 -0.117039 -76.6949
rradius 31.9732
rwrist -3.25297
rhand -1.41629 -69.7418
rfingers 7.12502
rthumb 24.2331 -621.769
lclavicle 3.18055e-014 8.90555e-014
lhumerus 33.0739 -15.8062 75.585
lradius 91.8101
lwrist 16.1123
lhand -48.6111 -51.828
lfingers 7.12502
lthumb -21.2555 -22.9735
rfemur -74.3868 -4.27717 62.6271
rtibia -2.60262
rfoot -4.0797 5.19287
rtoes 11.6585
lfemur -95.1268 9.12304 -8.84245
ltibia 8.22128
lfoot 12.3383 -13.0759
ltoes 42.6595
815
root 0.3893 16.633 8.14506 76.1804 35.3866 -7.91559
lowerback 34.9776 4.40437 4.79631
upperback 10.8981 6.88164 0.860744
thorax -5.14763 3.20784 -3.94639
lowerneck -6.75427 -5.87621 0.715684
upperneck -22.8186 -6.50504 11.0502
head -5.42037 -4.09252 3.56005
rclavicle -1.59028e-014 -5.24792e-014
rhumerus 75.1574 0.467027 -75.0518
rradius 35.9678
rwrist -8.32724
rhand -1.51693 -71.9107
rfingers 7.12502
rthumb 24.1366 -619.588
lclavicle -1.59028e-014 -5.24792e-014
lhumerus 33.1622 -15.4453 74.9147
lradius 91.7802
lwrist 16.4794
lhand -48.0149 -51.5772
lfingers 7.12502
lthumb -20.6827 -22.6592
rfemur -74.5062 -4.19729 62.3938
rtibia -2.58483
rfoot -4.02291 5.1036
rtoes 12.0071
lfemur -95.0896 9.00468 -9.19812
ltibia 7.96736
lfoot 12.3117 -13.3658
ltoes 41.8875
